<svg width="24" height="24" viewBox="0 0 24 24" fill="none" xmlns="http://www.w3.org/2000/svg">
<path d="M16 1.59998C15.5757 1.59998 15.1687 1.76855 14.8686 2.0686C14.5686 2.36866 14.4 2.77563 14.4 3.19998C14.4 3.62432 14.5686 4.03129 14.8686 4.33135C15.1687 4.6314 15.5757 4.79998 16 4.79998C16.4243 4.79998 16.8313 4.6314 17.1314 4.33135C17.4314 4.03129 17.6 3.62432 17.6 3.19998C17.6 2.77563 17.4314 2.36866 17.1314 2.0686C16.8313 1.76855 16.4243 1.59998 16 1.59998ZM13.032 4.79038C12.8237 4.79124 12.6239 4.87333 12.4752 5.01918L8.2512 9.01918C8.1665 9.09905 8.10025 9.19645 8.05708 9.30457C8.01391 9.41269 7.99486 9.52894 8.00126 9.64518C8.00765 9.76143 8.03935 9.87488 8.09413 9.97761C8.1489 10.0803 8.22544 10.1699 8.3184 10.24L11.2 12.4V16.8C11.184 17.8816 12.816 17.8816 12.8 16.8V12C12.8 11.8758 12.7711 11.7533 12.7155 11.6422C12.66 11.5311 12.5794 11.4345 12.48 11.36L11.2528 10.4368L14.1616 7.68478L15.36 9.28158C15.4347 9.38064 15.5314 9.46097 15.6425 9.51623C15.7535 9.57149 15.8759 9.60016 16 9.59998H18.4C19.4816 9.61598 19.4816 7.98398 18.4 7.99998H16.4L15.2 6.39998L14.24 5.11998C14.1691 5.02223 14.077 4.9418 13.9706 4.88472C13.8642 4.82764 13.7462 4.79538 13.6256 4.79038H13.032ZM4.8 11.2C3.52696 11.2 2.30606 11.7057 1.40589 12.6059C0.505713 13.506 0 14.7269 0 16C0 17.273 0.505713 18.4939 1.40589 19.3941C2.30606 20.2943 3.52696 20.8 4.8 20.8C6.07304 20.8 7.29394 20.2943 8.19411 19.3941C9.09429 18.4939 9.6 17.273 9.6 16C9.6 14.7269 9.09429 13.506 8.19411 12.6059C7.29394 11.7057 6.07304 11.2 4.8 11.2ZM19.2 11.2C17.927 11.2 16.7061 11.7057 15.8059 12.6059C14.9057 13.506 14.4 14.7269 14.4 16C14.4 17.273 14.9057 18.4939 15.8059 19.3941C16.7061 20.2943 17.927 20.8 19.2 20.8C20.473 20.8 21.6939 20.2943 22.5941 19.3941C23.4943 18.4939 24 17.273 24 16C24 14.7269 23.4943 13.506 22.5941 12.6059C21.6939 11.7057 20.473 11.2 19.2 11.2ZM4.8 12.8C5.64869 12.8 6.46263 13.1371 7.06274 13.7372C7.66286 14.3374 8 15.1513 8 16C8 16.8487 7.66286 17.6626 7.06274 18.2627C6.46263 18.8628 5.64869 19.2 4.8 19.2C3.95131 19.2 3.13737 18.8628 2.53726 18.2627C1.93714 17.6626 1.6 16.8487 1.6 16C1.6 15.1513 1.93714 14.3374 2.53726 13.7372C3.13737 13.1371 3.95131 12.8 4.8 12.8ZM19.2 12.8C20.0487 12.8 20.8626 13.1371 21.4627 13.7372C22.0629 14.3374 22.4 15.1513 22.4 16C22.4 16.8487 22.0629 17.6626 21.4627 18.2627C20.8626 18.8628 20.0487 19.2 19.2 19.2C18.3513 19.2 17.5374 18.8628 16.9373 18.2627C16.3371 17.6626 16 16.8487 16 16C16 15.1513 16.3371 14.3374 16.9373 13.7372C17.5374 13.1371 18.3513 12.8 19.2 12.8Z" fill="#00BCEC"/>
</svg>
