<svg width="24" height="24" viewBox="0 0 24 24" fill="none" xmlns="http://www.w3.org/2000/svg">
<g clip-path="url(#clip0_40_474)">
<path d="M8.62097 21.5376C8.79857 21.7296 8.78897 22.0368 8.59697 22.2192L7.55537 23.1936C7.36337 23.376 7.05617 23.3616 6.87857 23.1696L0.806574 16.6272C0.628974 16.4352 0.638574 16.128 0.830574 15.9456L1.87217 14.9712C1.91814 14.9283 1.97213 14.8948 2.03106 14.8727C2.08998 14.8507 2.15268 14.8405 2.21556 14.8427C2.27843 14.8449 2.34025 14.8596 2.39746 14.8857C2.45468 14.9119 2.50617 14.9491 2.54897 14.9952L8.62097 21.5376ZM16.3682 9.22562C16.5458 9.41762 16.5362 9.72482 16.3442 9.90722L9.78257 16.0368C9.59057 16.2192 9.28337 16.2048 9.10577 16.0128L7.54097 14.3232C7.36337 14.1312 7.37297 13.824 7.56497 13.6416L14.1266 7.51202C14.3186 7.33442 14.6258 7.34402 14.8034 7.53602L16.373 9.22562H16.3682ZM10.853 19.4496C11.0306 19.6416 11.021 19.9488 10.829 20.1312L9.78737 21.1056C9.59537 21.288 9.28817 21.2736 9.11057 21.0816L3.04337 14.5392C2.86577 14.3472 2.87537 14.04 3.06737 13.8576L4.10897 12.8832C4.30097 12.7056 4.60817 12.7152 4.78577 12.9072L10.8578 19.4496H10.853ZM20.9618 9.46082C21.1394 9.65282 21.1298 9.96002 20.9378 10.1424L19.8962 11.1168C19.7042 11.2992 19.397 11.2848 19.2194 11.0928L13.1522 4.55042C12.9746 4.35842 12.9842 4.05122 13.1762 3.86882L14.2226 2.89442C14.4146 2.71682 14.7218 2.72642 14.8994 2.91842L20.9666 9.46082H20.9618ZM23.189 7.37762C23.3666 7.56962 23.357 7.87682 23.165 8.05922L22.1234 9.03362C21.9314 9.21602 21.6242 9.20162 21.4466 9.00962L15.3794 2.46722C15.2018 2.27522 15.2114 1.96802 15.4034 1.78562L16.445 0.811216C16.491 0.768315 16.545 0.734902 16.6039 0.712887C16.6628 0.690873 16.7255 0.680689 16.7883 0.682918C16.8512 0.685147 16.913 0.699745 16.9702 0.725878C17.0274 0.75201 17.0789 0.789165 17.1218 0.835216L23.189 7.38242V7.37762Z" fill="#00BCEC"/>
</g>
<defs>
<clipPath id="clip0_40_474">
<rect width="24" height="24" fill="white"/>
</clipPath>
</defs>
</svg>
