<svg width="24" height="24" viewBox="0 0 24 24" fill="none" xmlns="http://www.w3.org/2000/svg">
<path d="M2.69468 2.23779L19.9648 19.508C20.2925 19.8357 20.4766 20.2801 20.4766 20.7436C20.4766 21.207 20.2925 21.6515 19.9648 21.9792C19.6371 22.3068 19.1926 22.4908 18.7292 22.4908C18.2658 22.4908 17.8214 22.3068 17.4936 21.9792L13.2748 17.6878C12.9988 17.4074 12.8439 17.0299 12.8436 16.6364V16.3772C12.8436 16.1785 12.8042 15.9818 12.7276 15.7985C12.651 15.6152 12.5387 15.4489 12.3973 15.3094L11.8526 14.8064C11.6677 14.6358 11.4429 14.5144 11.1988 14.4535C10.9547 14.3925 10.6992 14.394 10.4558 14.4576C10.0719 14.5578 9.6686 14.5559 9.28575 14.452C8.9029 14.3482 8.55386 14.146 8.27327 13.8656L4.26874 9.86061C1.89312 7.48498 1.0189 3.89764 2.69468 2.23779Z" stroke="#00BCEC" stroke-linejoin="round"/>
<path d="M18.7501 1.5L15.129 5.12109C14.8503 5.39968 14.6293 5.73043 14.4785 6.09445C14.3277 6.45847 14.2501 6.84863 14.2501 7.24266V7.93922C14.2501 8.03777 14.2307 8.13536 14.193 8.22641C14.1553 8.31746 14.1 8.40018 14.0302 8.46984L13.5001 9M15.0001 10.5L15.5302 9.96984C15.5999 9.90013 15.6826 9.84484 15.7737 9.80711C15.8647 9.76939 15.9623 9.74998 16.0609 9.75H16.7574C17.1515 9.75 17.5416 9.67238 17.9056 9.52158C18.2697 9.37078 18.6004 9.14974 18.879 8.87109L22.5001 5.25M20.6251 3.375L16.8751 7.125M9.37509 17.25L4.70071 21.9506C4.3491 22.3021 3.87227 22.4996 3.37509 22.4996C2.87791 22.4996 2.40108 22.3021 2.04946 21.9506C1.69795 21.599 1.50049 21.1222 1.50049 20.625C1.50049 20.1278 1.69795 19.651 2.04946 19.2994L6.00009 15.375" stroke="#00BCEC" stroke-linecap="round" stroke-linejoin="round"/>
</svg>
