<svg width="16" height="12" viewBox="0 0 16 12" fill="none" xmlns="http://www.w3.org/2000/svg">
<path d="M2.14515 10.5518C1.27868 9.67189 0.813477 8.68505 0.813477 7.08536C0.813477 4.27042 2.88038 1.74742 5.8861 0.5L6.63732 1.60828C3.83182 3.05919 3.28333 4.94198 3.06461 6.12908C3.51635 5.9055 4.10774 5.82748 4.68735 5.87896C6.20493 6.01327 7.40116 7.20439 7.40116 8.68505C7.40116 9.43162 7.09096 10.1476 6.53879 10.6755C5.98663 11.2034 5.23773 11.5 4.45685 11.5C4.025 11.4964 3.59821 11.4108 3.20134 11.248C2.80446 11.0852 2.44543 10.8485 2.14515 10.5518ZM10.5575 10.5518C9.69099 9.67189 9.22579 8.68505 9.22579 7.08536C9.22579 4.27042 11.2927 1.74742 14.2984 0.5L15.0496 1.60828C12.2441 3.05919 11.6956 4.94198 11.4769 6.12908C11.9287 5.9055 12.5201 5.82748 13.0997 5.87896C14.6172 6.01327 15.8135 7.20439 15.8135 8.68505C15.8135 9.43162 15.5033 10.1476 14.9511 10.6755C14.3989 11.2034 13.65 11.5 12.8692 11.5C12.4373 11.4964 12.0105 11.4108 11.6137 11.248C11.2168 11.0852 10.8577 10.8485 10.5575 10.5518Z" fill="white"/>
</svg>
