<svg width="24" height="25" viewBox="0 0 24 25" fill="none" xmlns="http://www.w3.org/2000/svg">
<path d="M10.9502 13.9932L9.15424 12.2032C9.06091 12.1099 8.94724 12.0599 8.81324 12.0532C8.67857 12.0466 8.55624 12.0986 8.44624 12.2092C8.33957 12.3159 8.28624 12.4339 8.28624 12.5632C8.28624 12.6926 8.33957 12.8106 8.44624 12.9172L10.3842 14.8552C10.5462 15.0166 10.7349 15.0972 10.9502 15.0972C11.1656 15.0972 11.3542 15.0166 11.5162 14.8552L15.5542 10.8172C15.6516 10.7199 15.7026 10.6052 15.7072 10.4732C15.7119 10.3406 15.6609 10.2192 15.5542 10.1092C15.4442 9.99925 15.3252 9.94325 15.1972 9.94125C15.0692 9.93925 14.9506 9.99325 14.8412 10.1032L10.9502 13.9932ZM8.67024 21.1792L7.35424 18.9792L4.87324 18.4552C4.67457 18.4186 4.51624 18.3119 4.39824 18.1352C4.28024 17.9592 4.23157 17.7719 4.25224 17.5732L4.48924 15.0172L2.80624 13.0972C2.6649 12.9526 2.59424 12.7746 2.59424 12.5632C2.59424 12.3519 2.6649 12.1739 2.80624 12.0292L4.48924 10.1092L4.25224 7.55425C4.23224 7.35491 4.2809 7.16725 4.39824 6.99125C4.51624 6.81525 4.67457 6.70858 4.87324 6.67125L7.35324 6.14825L8.66924 3.94825C8.77724 3.76958 8.92224 3.64625 9.10424 3.57825C9.28624 3.50958 9.47457 3.51858 9.66924 3.60525L12.0002 4.59025L14.3302 3.60525C14.5256 3.51858 14.7142 3.50958 14.8962 3.57825C15.0782 3.64625 15.2232 3.76958 15.3312 3.94825L16.6462 6.14825L19.1272 6.67125C19.3259 6.70858 19.4842 6.81525 19.6022 6.99125C19.7202 7.16725 19.7689 7.35491 19.7482 7.55425L19.5122 10.1092L21.1942 12.0292C21.3356 12.1739 21.4062 12.3519 21.4062 12.5632C21.4062 12.7746 21.3356 12.9529 21.1942 13.0982L19.5122 15.0172L19.7482 17.5722C19.7682 17.7716 19.7196 17.9592 19.6022 18.1352C19.4842 18.3119 19.3259 18.4186 19.1272 18.4552L16.6472 18.9792L15.3312 21.1792C15.2232 21.3572 15.0782 21.4806 14.8962 21.5492C14.7142 21.6179 14.5259 21.6086 14.3312 21.5212L12.0002 20.5362L9.67024 21.5212C9.47491 21.6079 9.28624 21.6169 9.10424 21.5482C8.92224 21.4802 8.77724 21.3569 8.66924 21.1782" fill="#0CCE77"/>
</svg>
